<?xml version="1.0" encoding="UTF-8"?>
<svg version="1.1" xmlns="http://www.w3.org/2000/svg" width="2000" height="1500">
<path d="M0 0 C660 0 1320 0 2000 0 C2000 495 2000 990 2000 1500 C1340 1500 680 1500 0 1500 C0 1005 0 510 0 0 Z " fill="#111111" transform="translate(0,0)"/>
<path d="M0 0 C10.79322283 8.78443985 14.37159606 21.32807743 18.33203125 34.15234375 C18.66976562 35.23515625 19.0075 36.31796875 19.35546875 37.43359375 C20.01007513 39.54928156 20.65976535 41.66649633 21.3046875 43.78515625 C22.4432565 47.51689189 23.6038288 51.24152177 24.76953125 54.96484375 C24.97964844 55.63636475 25.18976563 56.30788574 25.40625 56.99975586 C25.83438597 58.36786567 26.26260906 59.73594823 26.69091797 61.10400391 C27.73915001 64.45307733 28.78550946 67.8027356 29.83203125 71.15234375 C30.24868865 72.48567998 30.66535532 73.81901331 31.08203125 75.15234375 C33.58203125 83.15234374 33.58203125 83.15234374 34.17206764 85.04046535 C34.78685448 87.00777843 35.40165133 88.97508837 36.01644897 90.94239807 C36.83409672 93.55885812 37.65165439 96.17534625 38.46914673 98.79185486 C40.9110106 106.6070311 43.35448136 114.42170246 45.79952431 122.23588467 C47.91994766 129.01267415 50.03952135 135.78972915 52.15878868 142.56688023 C53.57122271 147.08354822 54.98397666 151.60011563 56.39746094 156.11645508 C73.53269222 210.86924526 73.53269222 210.86924526 77.70703125 226.27734375 C81.25665013 239.15630046 85.21677766 251.89797944 89.22729492 264.6394043 C90.31817013 268.10826692 91.40188817 271.57929265 92.484375 275.05078125 C94.72091688 282.21614089 96.97517668 289.37589516 99.23062134 296.5353241 C110.27403217 331.59170797 121.24354039 366.66983697 132.09741211 401.78540039 C132.96719294 404.59914961 133.83706413 407.41287087 134.70703125 410.2265625 C134.91395914 410.89586288 135.12088703 411.56516327 135.33408546 412.25474548 C138.42369871 422.24544403 141.54144092 432.22679885 144.70944214 442.19293213 C150.31240773 459.82657796 155.81930084 477.4903407 161.33203125 495.15234375 C163.50514161 491.8926782 164.38069073 489.14924566 165.51953125 485.40234375 C165.7323877 484.7069751 165.94524414 484.01160645 166.16455078 483.29516602 C166.89167292 480.91561101 167.61166537 478.53395211 168.33203125 476.15234375 C168.87712844 474.36443823 169.42271899 472.57668305 169.96875 470.7890625 C171.45856862 465.90743903 172.94243582 461.02402686 174.42480469 456.14013672 C175.58549854 452.31759331 176.74862166 448.49579194 177.91212463 444.67410278 C178.77061741 441.85407924 179.62886906 439.03398243 180.48706055 436.21386719 C181.64009018 432.42518634 182.79368573 428.63667891 183.94799805 424.84838867 C186.91610255 415.1052545 189.8760597 405.35974451 192.8203125 395.609375 C202.70460674 362.89941218 212.77260103 330.24793672 222.89379883 297.6105957 C223.15771203 296.75950131 223.42162523 295.90840693 223.6935358 295.0315218 C225.84563529 288.09128858 225.84563529 288.09128858 226.85471535 284.83917427 C229.79000047 275.3789761 232.71518796 265.91581835 235.61865234 256.44580078 C235.88821715 255.56716275 236.15778196 254.68852472 236.4355154 253.7832613 C237.71650592 249.60758698 238.99578308 245.43140509 240.27156067 241.25413513 C242.82815927 232.90375851 245.47741249 224.59572258 248.28050232 216.32460022 C249.7370897 211.93036189 250.98684136 207.49171802 252.20703125 203.02734375 C254.43083613 195.06016879 256.88935066 187.20612473 259.62060547 179.39794922 C261.66303507 173.46387997 263.40441459 167.46323255 265.109375 161.42578125 C268.06924522 150.95225039 271.24321478 140.55333277 274.49145508 130.16601562 C275.40034338 127.25875247 276.30492736 124.35017497 277.20898438 121.44140625 C279.76347523 113.24020786 282.33592104 105.04945932 285.08203125 96.91015625 C286.97753516 91.27967878 288.69133061 85.62877702 290.26953125 79.90234375 C292.32388301 72.59541804 294.4741721 65.33333087 296.80053711 58.10839844 C298.27237524 53.53101471 299.7037683 48.94423524 301.08868408 44.3396759 C301.94712718 41.48894976 302.81503405 38.64113504 303.68322754 35.79336548 C304.10928286 34.38740297 304.53121214 32.9801822 304.9486084 31.57162476 C309.19118088 17.27102298 314.41052109 3.86124507 328.01953125 -3.84765625 C342.69391007 -9.81483104 359.93391254 -5.60620386 374.33203125 -0.84765625 C375.82669922 -0.38166016 375.82669922 -0.38166016 377.3515625 0.09375 C388.14740902 3.88504728 396.90738855 11.06219202 402.33203125 21.15234375 C409.5377185 38.48951743 400.98391995 58.50804065 395.38671875 75 C392.7208138 82.9027682 390.36754773 90.89088666 388.00683594 98.88867188 C386.95917253 102.40312018 385.86823808 105.90357002 384.76953125 109.40234375 C384.56400635 110.0569458 384.35848145 110.71154785 384.14672852 111.38598633 C383.5423995 113.30828478 382.93722331 115.23031683 382.33203125 117.15234375 C380.93325336 121.61558203 379.53889801 126.08018397 378.14648438 130.54541016 C377.53708344 132.49600462 376.92615529 134.44612207 376.31445312 136.39599609 C375.15093327 140.10560092 373.98995034 143.81598751 372.83203125 147.52734375 C372.63356598 148.16339539 372.43510071 148.79944702 372.23062134 149.45477295 C369.95484598 156.76143557 367.74681505 164.0718219 365.76953125 171.46484375 C363.6616128 179.31888006 361.09484555 186.9933162 358.49072266 194.69506836 C353.52643807 209.4238424 348.87084171 224.26671797 344.83203125 239.27734375 C342.69852814 247.19218636 340.1160387 254.93065308 337.4909668 262.69433594 C332.52658411 277.42343948 327.87172819 292.26662618 323.83203125 307.27734375 C322.04750001 313.88519518 319.96991524 320.35925324 317.76953125 326.83984375 C314.03687513 337.8450115 310.56398848 348.92154651 307.14453125 360.02734375 C306.89259003 360.84238373 306.6406488 361.65742371 306.381073 362.49716187 C303.46345787 371.9437542 300.68005068 381.41253936 298.06784058 390.94813538 C296.48614277 396.68707676 294.71527896 402.33819918 292.76953125 407.96484375 C290.92597863 413.35007056 289.13409124 418.7418727 287.46875 424.18530273 C285.45719992 430.74574131 283.42972947 437.30112033 281.3984375 443.85546875 C280.65943812 446.24216673 279.92050799 448.62888615 279.18164062 451.015625 C278.03927034 454.7057575 276.89656486 458.39578418 275.75268555 462.08544922 C274.6334764 465.69594126 273.51583067 469.30691434 272.3984375 472.91796875 C271.8981881 474.5297702 271.8981881 474.5297702 271.38783264 476.1741333 C269.53058279 482.18145146 267.72507482 488.20133586 265.9621582 494.23681641 C263.14433369 503.87008607 260.16780284 513.45237374 257.18359375 523.03515625 C256.60203118 524.90628034 256.0206031 526.77744624 255.43930054 528.64865112 C253.92080217 533.53573785 252.40089864 538.42238623 250.8805542 543.30889893 C241.46008082 573.53337154 241.46008082 573.53337154 232.140625 603.7890625 C231.88040558 604.63683258 231.62018616 605.48460266 231.3520813 606.35806274 C229.91341559 611.08865599 228.59212037 615.83958624 227.34883118 620.62530518 C224.2946191 632.30089868 220.48237934 643.75463243 210.33203125 651.15234375 C201.62955193 656.11405584 192.08217537 657.61394148 182.33203125 659.15234375 C181.39037109 659.32435303 180.44871094 659.4963623 179.47851562 659.67358398 C156.55421957 663.16167714 128.74152124 660.62339291 109.3671875 646.875 C102.74256519 641.26759417 99.83567938 635.2517662 97.33203125 627.15234375 C96.8077941 625.54758647 96.28171748 623.94342906 95.75390625 622.33984375 C92.64232698 612.72451562 89.7018173 603.08401215 87.01953125 593.33984375 C82.92920042 578.48363067 78.41376057 563.76114544 73.90551758 549.027771 C72.74857581 545.2443153 71.59682359 541.4592792 70.44482422 537.67431641 C69.87671019 535.80793161 69.30803965 533.9417161 68.73876953 532.07568359 C67.39402439 527.66386359 66.05985436 523.2492786 64.74609375 518.828125 C62.54353535 511.41838607 60.32674075 504.03212862 57.83203125 496.71484375 C55.57057603 490.04607964 53.61239641 483.31302729 51.73828125 476.52563477 C49.93722327 470.06691221 47.93715408 463.68023986 45.9067688 457.29100037 C43.63889203 450.14691967 41.41496482 442.98973968 39.203125 435.828125 C38.84271622 434.66129181 38.48230743 433.49445862 38.11097717 432.29226685 C36.99671239 428.68326437 35.88306547 425.0740717 34.76953125 421.46484375 C33.28942152 416.66915994 31.80894439 411.87358973 30.328125 407.078125 C29.97620087 405.93839737 29.62427673 404.79866974 29.26168823 403.62440491 C26.95707736 396.16476137 24.63891282 388.7095349 22.30493164 381.2590332 C21.50761962 378.71303685 20.71442461 376.16587777 19.92578125 373.6171875 C17.98911465 367.37143771 16.00502817 361.15473569 13.89453125 354.96484375 C11.55122463 348.00838179 9.54601354 340.97775763 7.56274414 333.91137695 C5.78085045 327.60538021 3.78017829 321.423016 1.65844727 315.22290039 C0.52025114 311.80214294 -0.47670597 308.35641204 -1.43833923 304.88246155 C-5.97523898 288.51044029 -11.20552184 272.34631565 -16.3338623 256.15270996 C-17.6147583 252.1057595 -18.89213391 248.05769825 -20.16992188 244.00976562 C-24.55574868 230.12025269 -28.95494781 216.2350652 -33.37791443 202.35733032 C-35.77708035 194.82394289 -38.13901653 187.27911689 -40.49777222 179.73300171 C-44.04278974 168.39672624 -47.64409041 157.08828449 -51.45263672 145.8371582 C-53.39016958 140.08210423 -55.09539934 134.29864334 -56.71484375 128.4453125 C-57.72529234 124.95429543 -58.86811894 121.52888195 -60.04296875 118.08984375 C-61.94992519 112.48811406 -63.63877771 106.85120175 -65.23046875 101.15234375 C-68.77854276 88.4625296 -72.71730489 75.8915388 -76.61743164 63.30664062 C-76.87639221 62.46996353 -77.13535278 61.63328644 -77.40216064 60.77125549 C-77.89315837 59.18558717 -78.38517179 57.60023287 -78.87835693 56.01524353 C-82.0200068 45.87373838 -83.87034936 34.39377593 -79.76953125 24.19921875 C-71.82537466 9.43773629 -57.12109273 0.47401759 -41.48046875 -4.34765625 C-27.78291609 -7.57399883 -11.93233229 -8.2635332 0 0 Z " fill="#FEFEFE" transform="translate(841.66796875,353.84765625)"/>
</svg>
